<!-- icon666.com - MILLIONS vector ICONS FREE --><svg xmlns="http://www.w3.org/2000/svg" viewBox="0 0 64 64"><g id="Day"><path d="M48,22a6,6,0,1,1,6-6A6.0066,6.0066,0,0,1,48,22Zm0-10a4,4,0,1,0,4,4A4.0039,4.0039,0,0,0,48,12Z" fill="#000000" style="fill: rgb(255, 255, 255);"></path><path d="M16,34a1,1,0,0,1-1-1V20a5.0059,5.0059,0,0,1,5-5H33a1,1,0,0,1,0,2H20a3.0033,3.0033,0,0,0-3,3V33A1,1,0,0,1,16,34Z" fill="#000000" style="fill: rgb(255, 255, 255);"></path><path d="M16,34a.9967.9967,0,0,1-.707-.293l-2.8282-2.8281a1,1,0,1,1,1.4141-1.4141L16,31.5859l2.1211-2.1211a1,1,0,1,1,1.4141,1.4141L16.707,33.707A.9967.9967,0,0,1,16,34Z" fill="#000000" style="fill: rgb(255, 255, 255);"></path><path d="M44,49H31a1,1,0,0,1,0-2H44a3.0033,3.0033,0,0,0,3-3V31a1,1,0,0,1,2,0V44A5.0059,5.0059,0,0,1,44,49Z" fill="#000000" style="fill: rgb(255, 255, 255);"></path><path d="M50.8281,34.8281a.9967.9967,0,0,1-.707-.2929L48,32.4141l-2.1211,2.1211a1,1,0,0,1-1.4141-1.4141L47.293,30.293a.9994.9994,0,0,1,1.414,0l2.8282,2.8281a1,1,0,0,1-.7071,1.707Z" fill="#000000" style="fill: rgb(255, 255, 255);"></path><path d="M16,60a12,12,0,0,1,0-24c.0244,0,.1094.0039.1338.0059a.991.991,0,0,1,.9609.749,1.0038,1.0038,0,0,1-.4883,1.125A6.9986,6.9986,0,1,0,26.12,47.3936a1,1,0,0,1,1.874.4863L28,48A12.0131,12.0131,0,0,1,16,60ZM12.8848,38.4951A10.0013,10.0013,0,1,0,25.5029,51.1172,8.9955,8.9955,0,0,1,12.8848,38.4951Z" fill="#000000" style="fill: rgb(255, 255, 255);"></path><path d="M48,28a1.0012,1.0012,0,0,1-.7812-.375L45.4707,25.44,42.8643,26.458a1,1,0,0,1-1.3526-.7812L41.09,22.91l-2.7666-.4219a1,1,0,0,1-.7812-1.3526l1.0185-2.6064-2.1855-1.748a1.0013,1.0013,0,0,1,0-1.5625l2.1855-1.7481L37.542,10.8643a1,1,0,0,1,.7812-1.3526L41.09,9.09l.4219-2.7666a1,1,0,0,1,1.3526-.7812l2.6064,1.0185L47.2188,4.375a1.0353,1.0353,0,0,1,1.5625,0l1.748,2.1855L53.1357,5.542a1,1,0,0,1,1.3526.7812L54.91,9.09l2.7666.4219a1,1,0,0,1,.7812,1.3526L57.44,13.4707l2.1855,1.7481a1.0013,1.0013,0,0,1,0,1.5625L57.44,18.5293l1.0185,2.6064a1,1,0,0,1-.7812,1.3526L54.91,22.91l-.4219,2.7666a1,1,0,0,1-1.3526.7812L50.5293,25.44l-1.748,2.1855A1.0015,1.0015,0,0,1,48,28Zm-2.208-4.76a1.0018,1.0018,0,0,1,.7812.375L48,25.3994l1.4268-1.7842a1.0026,1.0026,0,0,1,1.1455-.3066l2.1269.831.3447-2.2578a.9989.9989,0,0,1,.8379-.8379l2.2578-.3447-.831-2.1269a1.0007,1.0007,0,0,1,.3066-1.1455L57.3994,16l-1.7842-1.4268a1.0007,1.0007,0,0,1-.3066-1.1455l.831-2.1269-2.2578-.3447a.9989.9989,0,0,1-.8379-.8379L52.6992,7.86l-2.1269.831a1.0026,1.0026,0,0,1-1.1455-.3066L48,6.6006,46.5732,8.3848a1.0022,1.0022,0,0,1-1.1455.3066L43.3008,7.86l-.3447,2.2578a.9989.9989,0,0,1-.8379.8379l-2.2578.3447.831,2.1269a1.0007,1.0007,0,0,1-.3066,1.1455L38.6006,16l1.7842,1.4268a1.0007,1.0007,0,0,1,.3066,1.1455l-.831,2.1269,2.2578.3447a.9989.9989,0,0,1,.8379.8379l.3447,2.2578,2.1269-.831A1.0117,1.0117,0,0,1,45.792,23.24Z" fill="#000000" style="fill: rgb(255, 255, 255);"></path></g></svg>